<svg width="100" height="100" viewBox="0 0 100 100" fill="none" xmlns="http://www.w3.org/2000/svg">
<path d="M12 0.5H88C94.3513 0.5 99.5 5.64873 99.5 12V88C99.5 94.3513 94.3513 99.5 88 99.5H12C5.64873 99.5 0.5 94.3513 0.5 88V12C0.5 5.64873 5.64873 0.5 12 0.5Z" fill="#F7F9FF"/>
<path d="M12 0.5H88C94.3513 0.5 99.5 5.64873 99.5 12V88C99.5 94.3513 94.3513 99.5 88 99.5H12C5.64873 99.5 0.5 94.3513 0.5 88V12C0.5 5.64873 5.64873 0.5 12 0.5Z" stroke="#C1BCBC"/>
<path d="M33.3333 59.3748C33.3333 62.8265 36.1316 65.6248 39.5833 65.6248C39.5833 68.5013 41.9152 70.8331 44.7917 70.8331C47.6681 70.8331 50 68.5013 50 65.6248C50 68.5013 52.3319 70.8329 55.2083 70.8329C58.0848 70.8329 60.4167 68.501 60.4167 65.6246C63.8685 65.6246 66.6667 62.8263 66.6667 59.3746C66.6667 58.1898 66.3371 57.0821 65.7646 56.1381C68.6514 55.5858 70.8333 53.0475 70.8333 49.9996C70.8333 46.9515 68.6514 44.4131 65.7646 43.8609C66.3371 42.9169 66.6667 41.8092 66.6667 40.6245C66.6667 37.1727 63.8685 34.3745 60.4167 34.3745C60.4167 31.498 58.0848 29.1662 55.2083 29.1662C52.3319 29.1662 50 31.4982 50 34.3747C50 31.4982 47.6681 29.1664 44.7917 29.1664C41.9152 29.1664 39.5833 31.4982 39.5833 34.3747C36.1316 34.3747 33.3333 37.1729 33.3333 40.6247C33.3333 41.8094 33.6629 42.9171 34.2355 43.8611C31.3485 44.4133 29.1667 46.9517 29.1667 49.9998C29.1667 53.0477 31.3485 55.586 34.2355 56.1383C33.6629 57.0823 33.3333 58.19 33.3333 59.3748Z" stroke="#141B34" stroke-width="3.125" stroke-linecap="round" stroke-linejoin="round"/>
<path d="M40.625 55.2081L44.4623 43.6963C44.659 43.1061 45.2112 42.7081 45.8333 42.7081C46.4554 42.7081 47.0077 43.1061 47.2044 43.6963L51.0417 55.2081M57.2917 42.7081V55.2081M42.7083 51.0414H48.9583" stroke="#141B34" stroke-width="3.125" stroke-linecap="round" stroke-linejoin="round"/>
</svg>
