<svg xmlns="http://www.w3.org/2000/svg" width="64" height="64" viewBox="0 0 64 64" fill="currentColor">
  <g transform="translate(0,64) scale(0.1,-0.1)">
    <path d="M40 526 c0 -29 36 -76 58 -76 12 0 13 -3 4 -12 -9 -9 -19 -10 -42 -1 -34 13 -34 13 -18 -22 6 -14 21 -27 32 -30 12 -2 30 -6 41 -8 16 -3 12 -8 -20 -21 -34 -16 -37 -19 -21 -28 10 -6 34 -8 53 -5 35 6 35 6 18 -14 -24 -26 -12 -36 22 -18 16 7 32 15 36 17 4 2 5 -8 1 -22 -8 -31 4 -33 40 -5 22 18 27 18 32 5 3 -8 -4 -27 -15 -42 -36 -45 -26 -53 32 -26 55 27 76 47 77 74 0 14 4 13 26 -7 34 -32 48 -32 40 0 -7 28 5 33 24 10 12 -15 50 -21 50 -8 0 4 -10 18 -22 31 l-23 25 22 -12 c26 -13 63 -14 82 -2 11 7 5 13 -25 27 -31 13 -35 18 -19 21 11 2 29 6 41 8 11 3 26 16 32 30 16 35 16 35 -18 22 -23 -9 -33 -8 -42 1 -9 9 -8 12 4 12 22 0 58 47 58 76 l0 23 -35 -20 c-20 -12 -59 -24 -88 -28 l-52 -6 3 -51 c3 -55 -14 -82 -43 -70 -24 9 -45 68 -38 109 3 19 1 43 -5 53 -9 16 -10 16 -16 -2 -3 -11 -19 -28 -36 -37 -24 -15 -30 -25 -30 -53 0 -19 5 -34 10 -34 6 0 10 7 10 15 0 8 5 15 10 15 14 0 13 -43 -2 -58 -16 -16 -53 -15 -67 2 -6 7 -10 35 -9 62 l3 49 -52 6 c-29 4 -68 16 -88 28 l-35 20 0 -23z m140 -55 c3 -1 5 -25 5 -53 0 -29 3 -51 6 -48 4 3 16 -3 26 -13 12 -10 30 -16 44 -13 13 3 30 5 37 5 7 1 10 6 7 11 -11 17 25 24 38 7 17 -22 63 -29 78 -11 6 7 15 12 18 9 8 -5 11 11 11 68 0 28 4 37 18 38 9 1 27 3 40 4 24 2 26 -15 2 -23 -8 -3 -10 0 -5 9 5 8 4 10 0 6 -11 -10 -16 -39 -5 -32 4 2 16 -5 26 -17 11 -12 14 -19 9 -16 -14 9 -48 -18 -40 -31 3 -6 -5 -16 -19 -22 -14 -7 -23 -16 -19 -22 4 -6 1 -7 -6 -3 -7 5 -21 0 -33 -11 -12 -10 -18 -12 -14 -5 4 7 1 12 -8 12 -9 0 -16 5 -16 10 0 6 -5 10 -12 10 -6 0 -8 -3 -5 -7 4 -3 -2 -12 -13 -20 -11 -8 -20 -20 -20 -27 0 -8 -7 -19 -14 -26 -13 -10 -14 -7 -10 14 6 33 -29 60 -57 43 -14 -9 -21 -9 -31 1 -6 6 -19 12 -28 12 -9 0 -25 10 -36 22 -10 12 -13 18 -5 13 21 -12 2 16 -22 34 -18 13 -18 14 3 36 16 17 18 25 9 30 -8 6 -10 4 -4 -5 5 -8 3 -11 -5 -8 -8 2 -15 9 -17 14 -3 8 31 11 67 5z"/>
    <path d="M371 211 c-11 -45 -11 -53 5 -80 23 -38 38 -29 30 18 -6 34 -5 35 9 17 14 -19 15 -19 15 10 0 16 -10 42 -23 57 l-23 29 -13 -51z"/>
    <path d="M298 191 c-40 -29 -58 -58 -58 -98 l0 -25 29 31 c16 17 33 31 39 31 12 0 35 54 30 72 -2 11 -12 8 -40 -11z"/>
    <path d="M328 120 c-9 -14 -16 -40 -16 -58 1 -33 1 -33 20 -14 14 14 19 30 16 58 l-3 39 -17 -25z"/>
  </g>
</svg>
